# xmcd CD database file
#
# Track frame offsets:
#	150
#	13252
#	26680
#	41240
#	52225
#	66605
#	79635
#	92515
#	106767
#	122475
#	139570
#	154140
#	168415
#	199969
#	227210
#	243643
#	275204
#	308177
#	331330
#
# Disc length: 4840 seconds
#
# Revision: 0
# Processed by: cddbd v1.5.2PL0 Copyright (c) Steve Scherf et al.
# Submitted via: CDex 1.72
#
DISCID=1612e613
DTITLE=Art Pepper - 1954-1962, CD 5 sur 6
DYEAR=1900
DGENRE=Jazz
TTITLE0=Tickle Toe
TTITLE1=Chili Pepper
TTITLE2=Susie The Poodle
TTITLE3=Brown Gold
TTITLE4=Holiday Flight
TTITLE5=Surf Ride
TTITLE6=Straight Life
TTITLE7=Cinnamon
TTITLE8=Thyme Time
TTITLE9=The Way You Look Tonight
TTITLE10=Nutmeg
TTITLE11=Art's Oregano
TTITLE12=Whims Of Chambers
TTITLE13=Bijou The Poodle
TTITLE14=Why Are We Afraid
TTITLE15=Softly, As In A Morning Sunrise
TTITLE16=Rhythm-A-Ning
TTITLE17=Diane
TTITLE18=Gettin' Together
EXTD=
EXTT0=
EXTT1=
EXTT2=
EXTT3=
EXTT4=
EXTT5=
EXTT6=
EXTT7=
EXTT8=
EXTT9=
EXTT10=
EXTT11=
EXTT12=
EXTT13=
EXTT14=
EXTT15=
EXTT16=
EXTT17=
EXTT18=
PLAYORDER=
